<svg xmlns="http://www.w3.org/2000/svg"><symbol fill="none" id="about" viewBox="0 0 25 24"><title>about</title><path fill-rule="evenodd" clip-rule="evenodd" d="M4.379 1.879A3 3 0 016.5 1h8a1 1 0 01.707.293l6 6A1 1 0 0121.5 8v12a3 3 0 01-3 3h-12a3 3 0 01-3-3V4a3 3 0 01.879-2.121zM6.5 3a1 1 0 00-1 1v16a1 1 0 001 1h12a1 1 0 001-1V8.414L14.086 3H6.5z" fill="#000"/><path d="M15.5 2a1 1 0 10-2 0v6a1 1 0 001 1h6a1 1 0 100-2h-5V2zm-7 6a1 1 0 000 2h2a1 1 0 100-2h-2zm-1 5a1 1 0 011-1h8a1 1 0 110 2h-8a1 1 0 01-1-1zm1 3a1 1 0 100 2h8a1 1 0 100-2h-8z" fill="#000"/></symbol><symbol fill="none" id="app-store-android" viewBox="0 0 339 99"><title>app-store-android</title><path d="M331.435 0H7.213C3.229 0 0 3.224 0 7.2v84.6C0 95.777 3.23 99 7.213 99h324.222c3.984 0 7.213-3.224 7.213-7.2V7.2c0-3.976-3.229-7.2-7.213-7.2z" fill="#212121"/><path fill-rule="evenodd" clip-rule="evenodd" d="M183.539 55.044c2.46 0 4.405 1.08 5.423 2.273h.15v-1.65h4.299v18.312c0 7.528-4.485 10.621-9.802 10.621-4.995 0-8.006-3.328-9.143-6.032l3.942-1.626c.712 1.663 2.432 3.643 5.201 3.643 3.399 0 5.503-2.096 5.503-5.996v-1.464h-.15c-1.021 1.23-2.963 2.319-5.423 2.319-5.164 0-9.886-4.45-9.886-10.166 0-5.749 4.722-10.234 9.886-10.234zm101.972.598l5.372 12.995h.155l5.198-12.995h5.029l-12.443 28.263H284.1l4.606-10.105-8.072-18.158h4.877zm-230.5-3.77L63.8 60.65 26.733 80.943c-.28.154-.55.278-.808.375l29.086-29.446zM23.266 20.166l30.476 30.438-30.33 30.704c-.884-.561-1.359-1.78-1.367-3.354l-.273-54.188-.002-.308c-.008-1.723.619-2.775 1.497-3.292zM161.4 55.044c5.706 0 10.36 4.287 10.36 10.202 0 5.865-4.652 10.198-10.36 10.198-5.694 0-10.348-4.333-10.348-10.198 0-5.915 4.654-10.202 10.348-10.202zm-22.578 0c5.703 0 10.348 4.287 10.348 10.202 0 5.865-4.642 10.198-10.348 10.198-5.707 0-10.346-4.333-10.346-10.198 0-5.915 4.639-10.202 10.346-10.202zm74.161 0c5.351 0 7.98 4.207 8.831 6.487l.475 1.162-13.793 5.644c1.055 2.048 2.702 3.089 4.995 3.089 2.31 0 3.906-1.126 5.08-2.82l3.517 2.316a10.25 10.25 0 01-8.597 4.522c-5.859 0-10.23-4.485-10.23-10.198 0-6.068 4.417-10.202 9.722-10.202zM111.956 43.76c4.879 0 8.36 1.898 10.975 4.367l-3.089 3.054c-1.87-1.745-4.403-3.09-7.886-3.09a11.43 11.43 0 00-11.485 11.511 11.434 11.434 0 003.339 8.156 11.419 11.419 0 008.146 3.353c4.18 0 6.558-1.663 8.087-3.161 1.255-1.242 2.073-3.023 2.377-5.446h-10.464v-4.332h14.729a14.3 14.3 0 01.237 2.706c0 3.243-.9 7.26-3.79 10.117-2.816 2.9-6.403 4.449-11.176 4.449-8.831 0-16.255-7.107-16.255-15.842s7.424-15.842 16.255-15.842zm159.157 11.226c5.196 0 9.211 2.973 9.211 8.29v11.497h-4.368v-2.319h-.155c-1.055 1.58-2.733 2.939-5.774 2.939-3.981 0-7.523-2.585-7.523-6.603 0-4.393 4.405-6.746 8.728-6.746 2.155 0 3.906.692 4.724 1.162v-.315c-.036-2.461-2.414-3.855-4.761-3.855-1.678 0-3.267.54-4.131 2.202l-4.013-1.663c1.398-3.16 4.797-4.589 8.062-4.589zm-70.039-10.139v29.974h-4.536V44.847h4.536zm58.934 0V74.82h-4.535V44.847h4.535zm-16.966-.002c5.009 0 9.946 3.596 9.946 9.309 0 5.714-4.925 9.309-9.946 9.309h-6.323v11.356h-4.524V44.845h10.847zM183.926 59.06c-3.123 0-5.74 2.624-5.74 6.22 0 3.558 2.617 6.148 5.74 6.148 3.079 0 5.508-2.59 5.508-6.148 0-3.596-2.429-6.22-5.508-6.22zm-22.527.002c-3.126 0-5.813 2.505-5.813 6.184 0 3.629 2.687 6.18 5.813 6.18 3.125 0 5.824-2.549 5.824-6.18 0-3.679-2.699-6.184-5.824-6.184zm-22.578 0c-3.128 0-5.825 2.505-5.825 6.184 0 3.629 2.697 6.18 5.825 6.18 3.125 0 5.815-2.549 5.815-6.18 0-3.679-2.69-6.184-5.815-6.184zm133.001 6.6c-2.225 0-4.794.891-4.794 3.21 0 1.813 2.061 2.54 3.539 2.54 2.619.002 5.036-1.966 5.391-4.742-1.209-.572-2.145-1.007-4.136-1.007zm-58.688-6.682c-2.295 0-5.503 2.016-5.384 5.947l9.223-3.78c-.51-1.276-2.037-2.167-3.839-2.167zM65.43 41.325l12.612 6.881c3.106 1.694 1.517 3.815 0 4.646l-12.603 6.9-9.167-9.157 9.158-9.27zm177.73 7.69h-6.441v10.28h6.441c3.375-.003 5.303-2.823 5.303-5.141a5.23 5.23 0 00-5.303-5.139zM25.44 19.8c.448.059.897.19 1.293.407L63.791 40.43l-8.789 8.897L25.44 19.8zM169.342 18c2.105 0 3.883.726 5.317 2.19 1.442 1.462 2.153 3.232 2.153 5.325 0 2.108-.711 3.89-2.141 5.34-1.434 1.452-3.21 2.178-5.329 2.178-2.128 0-3.906-.726-5.341-2.178-1.429-1.452-2.143-3.232-2.143-5.337 0-2.108.714-3.89 2.143-5.34 1.435-1.452 3.21-2.178 5.341-2.178zm-65.33 0a7.71 7.71 0 012.985.608c.944.399 1.718.939 2.274 1.604l-1.267 1.264c-.973-1.138-2.298-1.695-3.992-1.695-1.528 0-2.854.526-3.976 1.59-1.113 1.066-1.67 2.45-1.67 4.147 0 1.694.557 3.088 1.67 4.156a5.639 5.639 0 003.976 1.592c1.621 0 2.985-.54 4.062-1.604.709-.702 1.113-1.675 1.217-2.917h-5.279v-1.73h7.044c.085.372.109.735.109 1.086 0 2.002-.605 3.607-1.799 4.802-1.374 1.419-3.162 2.13-5.354 2.13-2.094 0-3.882-.726-5.35-2.154-1.468-1.452-2.201-3.231-2.201-5.361s.733-3.914 2.2-5.352c1.469-1.442 3.257-2.166 5.351-2.166zm77.703.327l7.068 11.182h.08l-.08-2.764v-8.416h1.87v14.377h-1.952l-7.402-11.734h-.082l.082 2.776v8.956h-1.858V18.327h2.274zm-59.372.002v1.767l-.002-.002h-6.619v4.557h5.965v1.73h-5.962v4.558h6.618v1.767h-8.49V18.33h8.49zm33.41-.002v1.767h-4.073v12.61h-1.861v-12.61h-4.073v-1.767h10.007zm-12.363 0v14.377h-1.87V18.327h1.87zm-9.105 0v1.767h-4.059v12.61h-1.872v-12.61h-4.059v-1.767h9.99zm35.057 1.44c-1.565 0-2.878.54-3.955 1.617-1.076 1.074-1.62 2.456-1.62 4.134 0 1.675.544 3.057 1.62 4.131 1.079 1.078 2.39 1.617 3.955 1.617 1.553 0 2.879-.54 3.943-1.617 1.077-1.074 1.621-2.456 1.621-4.131 0-1.678-.544-3.06-1.621-4.134a5.35 5.35 0 00-3.943-1.617z" fill="#fff"/></symbol><symbol fill="none" id="app-store-ios" viewBox="0 0 339 99"><title>app-store-ios</title><path d="M331.435 0H7.213C3.229 0 0 3.224 0 7.2v84.6C0 95.777 3.23 99 7.213 99h324.222c3.984 0 7.213-3.224 7.213-7.2V7.2c0-3.976-3.229-7.2-7.213-7.2z" fill="#212121"/><path fill-rule="evenodd" clip-rule="evenodd" d="M154.068 52.424c2.738 0 5.024 1.08 6.853 3.24 1.833 2.164 2.748 5.008 2.748 8.536 0 3.94-1.067 7.056-3.201 9.342-1.911 2.036-4.284 3.053-7.116 3.053-3.058 0-5.254-1.097-6.592-3.29h-.096v12.207h-5.158V60.528c0-2.478-.065-5.02-.191-7.628h4.536l.288 3.672h.096c1.72-2.767 4.33-4.148 7.833-4.148zm26.7 0c2.736 0 5.022 1.08 6.855 3.24 1.826 2.164 2.743 5.008 2.743 8.536 0 3.94-1.067 7.056-3.203 9.342-1.908 2.036-4.281 3.053-7.114 3.053-3.057 0-5.253-1.097-6.589-3.29h-.096v12.207h-5.158V60.528c0-2.478-.065-5.02-.191-7.628h4.536l.288 3.672h.096c1.718-2.767 4.328-4.148 7.833-4.148zM75.501 29.922l.389.018.457.037.253.026.549.074.6.104c2.602.506 6.376 1.934 9.063 5.845l-.26.162-.392.264-.338.246-.386.3-.21.172-.443.385c-1.984 1.787-4.695 5.157-4.65 10.216.047 5.441 2.82 8.758 5.144 10.583l.49.369.468.324.442.282.208.125.386.22.342.18.413.2.38.162-.078.276-.204.627-.24.669-.204.529-.24.587-.276.64-.152.339-.335.707-.181.368-.394.76a30.948 30.948 0 01-1.999 3.246l-.792 1.168-.537.764c-2.168 3.02-4.59 5.563-8.08 5.619-1.757.04-3.013-.396-4.246-.908l-1.242-.522c-1.27-.518-2.675-.977-4.689-.977-2.033 0-3.464.43-4.745.933l-1.66.685c-1.1.444-2.24.821-3.737.883-3.08.113-5.604-2.322-7.797-5.154l-.565-.746a52.874 52.874 0 01-.277-.378l-.811-1.135-.265-.377c-5.251-7.656-9.34-21.577-3.858-31.05 2.656-4.645 7.499-7.637 12.675-7.716 2.012-.042 3.95.636 5.695 1.325l1.134.452c1.285.512 2.437.934 3.399.934.678 0 1.529-.262 2.506-.628l2.272-.887c2.109-.808 4.544-1.587 7.018-1.327zm176.233 22.504c3.406 0 6.147 1.128 8.215 3.386 1.978 2.19 2.965 5.017 2.965 8.482 0 3.562-1.021 6.486-3.057 8.773-2.136 2.354-4.971 3.528-8.505 3.528-3.406 0-6.118-1.128-8.14-3.383-2.022-2.256-3.033-5.103-3.033-8.534 0-3.59 1.04-6.531 3.128-8.818 2.082-2.289 4.893-3.434 8.427-3.434zm-40.064-8.96c2.929 0 5.362.51 7.305 1.526l-1.29 4.196c-1.814-.985-3.865-1.477-6.161-1.477-1.814 0-3.231.446-4.247 1.335-.859.794-1.289 1.763-1.289 2.91 0 1.27.491 2.32 1.477 3.146.859.763 2.419 1.589 4.683 2.48 2.77 1.113 4.804 2.414 6.113 3.907 1.304 1.487 1.955 3.349 1.955 5.57 0 2.734-.951 4.957-2.86 6.674-2.097 1.876-5.016 2.813-8.768 2.813-3.464 0-6.241-.666-8.343-2.002l1.195-4.29c2.264 1.366 4.748 2.052 7.455 2.052 1.942 0 3.454-.44 4.54-1.313 1.082-.874 1.621-2.048 1.621-3.511 0-1.304-.445-2.403-1.338-3.294-.887-.89-2.37-1.72-4.441-2.485-5.636-2.098-8.451-5.172-8.451-9.214 0-2.641.986-4.807 2.963-6.493 1.969-1.688 4.596-2.53 7.881-2.53zm19.912 3.66v5.769h5.685v3.868h-5.685v11.25c0 2.861 1.001 4.29 3.009 4.29.922 0 1.686-.079 2.291-.238l.143 3.909c-1.016.38-2.354.57-4.011.57-2.037 0-3.628-.62-4.777-1.86-1.144-1.24-1.72-3.322-1.72-6.246v-11.68h-3.387v-3.863h3.387v-4.243l5.065-1.526zm61.515 5.255c3.346 0 5.878 1.238 7.598 3.716 1.362 1.968 2.047 4.402 2.047 7.292 0 .922-.061 1.7-.189 2.335h-15.471c.06 2.289.808 4.04 2.244 5.247 1.304 1.08 2.99 1.62 5.061 1.62 2.29 0 4.38-.364 6.26-1.096l.808 3.573c-2.197.957-4.79 1.432-7.782 1.432-3.599 0-6.424-1.057-8.481-3.17-2.051-2.113-3.079-4.95-3.079-8.51 0-3.493.956-6.403 2.869-8.723 2.003-2.478 4.71-3.716 8.115-3.716zm-166.491-8.444l10.413 32.134h-5.493l-3.009-9.44h-10.459l-2.867 9.44h-5.348l10.363-32.134h6.4zm151.782 8.487c.477 0 .907.034 1.289.094v4.91a8.958 8.958 0 00-1.625-.143c-1.814 0-3.217.683-4.204 2.052-.859 1.207-1.29 2.733-1.29 4.576V76.07h-5.154l.048-15.874c0-2.67-.065-5.102-.193-7.295h4.492l.188 4.433h.143c.544-1.523 1.403-2.75 2.579-3.67 1.149-.828 2.389-1.24 3.727-1.24zm-26.838 3.767c-2.073 0-3.648.925-4.729 2.772-.926 1.53-1.383 3.392-1.383 5.595 0 2.136.457 3.97 1.383 5.495 1.115 1.85 2.673 2.772 4.683 2.772 1.969 0 3.515-.941 4.63-2.82.951-1.557 1.43-3.41 1.43-5.544 0-2.137-.458-3.97-1.384-5.498-1.081-1.85-2.627-2.772-4.63-2.772zm-99.154.33c-1.272 0-2.428.426-3.461 1.264-1.035.845-1.713 1.948-2.029 3.315-.16.637-.24 1.159-.24 1.57v3.863c0 1.685.518 3.107 1.553 4.269 1.035 1.161 2.38 1.74 4.035 1.74 1.942 0 3.454-.748 4.535-2.24 1.084-1.495 1.626-3.465 1.626-5.913 0-2.256-.508-4.115-1.529-5.578-1.115-1.526-2.612-2.29-4.49-2.29zm26.698 0c-1.275 0-2.429.426-3.464 1.264-1.035.845-1.71 1.948-2.027 3.315-.157.637-.239 1.159-.239 1.57v3.863c0 1.685.517 3.107 1.548 4.269 1.035 1.159 2.38 1.74 4.039 1.74 1.943 0 3.455-.748 4.536-2.24 1.083-1.495 1.625-3.465 1.625-5.913 0-2.256-.51-4.115-1.531-5.578-1.115-1.526-2.608-2.29-4.487-2.29zm-55.829-8.294h-.096c-.317 1.367-.828 3.386-1.529 6.054l-2.673 8.39h8.643l-2.721-8.39c-.288-.857-.828-2.876-1.624-6.054zm169.448 7.722c-1.686 0-3.058.698-4.105 2.099-.859 1.113-1.369 2.448-1.526 4.003h10.742c.034-1.523-.302-2.842-1.001-3.955-.893-1.432-2.264-2.147-4.11-2.147zm-90.946-35.128c2.98 0 4.475 1.57 4.475 4.709v4.192c0 1.137.055 2.043.164 2.714h-2.276l-.189-1.311h-.07c-.779 1.045-1.889 1.57-3.331 1.57-1.076 0-1.947-.346-2.603-1.032-.595-.623-.892-1.398-.892-2.318 0-1.39.58-2.45 1.749-3.185 1.166-.734 2.806-1.094 4.917-1.077v-.212c0-1.5-.788-2.248-2.368-2.248-1.125 0-2.116.282-2.973.842l-.515-1.66c1.06-.655 2.368-.984 3.912-.984zm-67.181 0c1.674 0 3.019.553 4.037 1.662.968 1.076 1.454 2.467 1.454 4.167 0 1.75-.501 3.185-1.502 4.31-1.05 1.157-2.441 1.734-4.178 1.734-1.674 0-3.006-.553-4.001-1.664-.991-1.108-1.487-2.506-1.487-4.191 0-1.763.51-3.21 1.536-4.332 1.025-1.123 2.404-1.686 4.141-1.686zm54.058 0c1.676 0 3.019.553 4.039 1.662.968 1.076 1.454 2.467 1.454 4.167 0 1.75-.5 3.185-1.502 4.31-1.05 1.157-2.443 1.734-4.177 1.734-1.677 0-3.01-.553-4.001-1.664-.992-1.108-1.488-2.506-1.488-4.191 0-1.763.511-3.21 1.536-4.332 1.026-1.123 2.405-1.686 4.139-1.686zm48.359 0c1.671 0 3.019.553 4.035 1.662.967 1.076 1.453 2.467 1.453 4.167 0 1.75-.5 3.185-1.502 4.31-1.05 1.157-2.438 1.734-4.177 1.734-1.672 0-3.005-.553-4.001-1.664-.992-1.108-1.488-2.506-1.488-4.191 0-1.763.511-3.21 1.536-4.332 1.026-1.123 2.405-1.686 4.144-1.686zm-16.282-4.99v13.538c0 1.108.029 2.13.09 3.067h-2.25l-.118-1.828h-.071c-.718 1.39-1.942 2.086-3.662 2.086-1.374 0-2.518-.538-3.425-1.615s-1.36-2.475-1.36-4.192c0-1.843.492-3.335 1.478-4.474.956-1.063 2.127-1.594 3.52-1.594 1.531 0 2.603.514 3.212 1.545h.049V15.83h2.537zm49.668 2.387v2.833h2.791v1.898h-2.789v5.53c0 1.404.496 2.107 1.478 2.107.455 0 .832-.038 1.13-.118l.065 1.92c-.501.188-1.159.282-1.969.282-1.001 0-1.78-.304-2.344-.913-.566-.608-.847-1.632-.847-3.069v-5.74h-1.666v-1.895h1.666v-2.086l2.485-.749zm25.314 2.582c1.64 0 2.885.608 3.727 1.825.68.966 1.016 2.161 1.016 3.581 0 .454-.034.835-.094 1.147h-7.603c.034 1.125.397 1.982 1.101 2.576.643.532 1.473.797 2.489.797 1.125 0 2.15-.178 3.074-.538l.397 1.758c-1.081.468-2.354.702-3.827.702-1.766 0-3.156-.519-4.163-1.557-1.011-1.039-1.512-2.432-1.512-4.18 0-1.717.467-3.146 1.408-4.286.982-1.217 2.31-1.825 3.987-1.825zm-178.432-4.27c2.77 0 4.858.602 6.265 1.804 1.578 1.36 2.368 3.303 2.368 5.834 0 2.842-.853 4.981-2.559 6.418-1.579 1.326-3.824 1.99-6.732 1.99-1.441 0-2.675-.063-3.708-.189V16.86a27.422 27.422 0 014.366-.329zm27.893 4.523l1.289 5.411c.312 1.28.569 2.5.774 3.654h.046c.189-.952.501-2.164.941-3.63l1.618-5.433h2.066l1.551 5.318a43.61 43.61 0 01.914 3.747h.07c.172-1.171.431-2.42.774-3.747l1.384-5.318h2.489v-.002l-3.568 11.383h-2.322l-1.478-4.943a36.907 36.907 0 01-.917-3.677h-.046a26.847 26.847 0 01-.917 3.677l-1.569 4.943h-2.349l-3.355-11.383h2.605zm23.091-.239c1.064 0 1.949.343 2.653 1.031.876.843 1.314 2.1 1.314 3.772v6.819h-2.535v-6.52c0-2.009-.765-3.013-2.298-3.013-.752 0-1.36.275-1.831.828a2.935 2.935 0 00-.704 1.951v6.751h-2.535v-8.127c0-1-.032-2.084-.092-3.258h2.228l.118 1.78h.07c.296-.553.736-1.01 1.314-1.374a4.29 4.29 0 012.298-.64zm10.958-4.984v16.606h-2.533V15.83h2.533zm72.944 4.984c1.062 0 1.948.343 2.651 1.031.879.843 1.314 2.1 1.314 3.772v6.819h-2.533v-6.52c0-2.009-.764-3.013-2.3-3.013-.752 0-1.359.275-1.829.828a2.925 2.925 0 00-.704 1.951v6.751h-2.537v-8.127c0-1-.029-2.084-.09-3.258h2.226l.118 1.78h.071c.297-.553.737-1.01 1.313-1.374a4.297 4.297 0 012.3-.64zm27.075-4.984v6.86h.049c.798-1.248 1.942-1.871 3.425-1.871 1.05 0 1.918.343 2.607 1.031.859.857 1.29 2.132 1.29 3.817v6.769h-2.538v-6.471c0-2.04-.764-3.062-2.295-3.062-1.176 0-1.979.591-2.419 1.774a3.172 3.172 0 00-.119.91v6.846H276.7V15.83h2.532zm-144.738 6.84c-1.018 0-1.792.453-2.325 1.361-.454.751-.679 1.666-.679 2.748 0 1.05.227 1.951.679 2.702.55.908 1.314 1.362 2.301 1.362.967 0 1.727-.461 2.274-1.386.469-.765.704-1.673.704-2.724 0-1.05-.228-1.95-.68-2.702-.532-.908-1.289-1.361-2.274-1.361zm54.06 0c-1.02 0-1.794.453-2.324 1.361-.455.751-.68 1.666-.68 2.748 0 1.05.227 1.951.68 2.702.549.908 1.313 1.362 2.3 1.362.968 0 1.725-.461 2.272-1.386.471-.765.703-1.673.703-2.724 0-1.05-.227-1.95-.679-2.702-.53-.908-1.29-1.361-2.272-1.361zm11.026 6.393c0 .595.159 1.039.486 1.336.327.297.743.444 1.238.444.557 0 1.077-.176 1.551-.526.477-.353.769-.8.878-1.348.027-.123.041-.273.041-.444V26.77c-2.796-.049-4.194.717-4.194 2.294zm37.329-6.393c-1.016 0-1.791.453-2.325 1.361-.455.751-.68 1.666-.68 2.748 0 1.05.228 1.951.68 2.702.549.908 1.313 1.362 2.3 1.362.968 0 1.73-.461 2.277-1.386.466-.765.703-1.673.703-2.724 0-1.05-.227-1.95-.679-2.702-.535-.908-1.29-1.361-2.276-1.361zm-21.408.118c-.946 0-1.686.374-2.23 1.125-.54.751-.813 1.71-.813 2.88 0 1.126.259 2.039.779 2.741.549.749 1.289 1.123 2.216 1.123.832 0 1.497-.311 2.003-.937.488-.577.728-1.272.728-2.084v-1.898c0-.328-.025-.593-.07-.796a2.882 2.882 0 00-.917-1.534c-.472-.413-1.04-.62-1.696-.62zm-98.019-4.264c-.798 0-1.478.053-2.042.164v11.805c.312.048.883.07 1.713.07 1.94 0 3.437-.539 4.492-1.615 1.054-1.077 1.587-2.647 1.587-4.709 0-1.842-.489-3.255-1.466-4.24-.978-.983-2.405-1.475-4.284-1.475zm-41.93-3.511c.402 3.643-1.045 7.234-3.159 9.873-2.206 2.598-5.735 4.585-9.172 4.33-.45-3.506 1.291-7.235 3.241-9.51 2.204-2.58 6.03-4.558 9.09-4.693zm219.967 7.54c-.827 0-1.502.343-2.018 1.032-.42.548-.67 1.202-.752 1.968h5.278c.02-.751-.147-1.398-.491-1.944-.44-.703-1.11-1.055-2.017-1.055z" fill="#fff"/></symbol><symbol fill="none" id="arrow-left" viewBox="0 0 24 24"><title>arrow-left</title><path fill-rule="evenodd" clip-rule="evenodd" d="M12.707 4.293a1 1 0 010 1.414L7.414 11H19a1 1 0 110 2H7.414l5.293 5.293a1 1 0 01-1.414 1.414l-7-7a1 1 0 010-1.414l7-7a1 1 0 011.414 0z" fill="currentColor"/></symbol><symbol fill="none" id="bioy-filled" viewBox="0 0 29 28"><title>bioy-filled</title><path fill-rule="evenodd" clip-rule="evenodd" d="M23.244 0H5.75v25.063l8.738-3.865 8.757 3.864V0zM9.934 17.063V3.91h5.676c1.98.15 3.156 1.613 3.156 3.35 0 1.326-.642 2.406-1.435 2.748 1.709.232 2.625 1.586 2.625 3.172 0 1.969-1.108 3.705-4.43 3.841-1.326 0-5.592.041-5.592.041z" fill="currentColor"/></symbol><symbol id="donate" viewBox="0 0 24 24"><title>donate</title><path fill-rule="evenodd" clip-rule="evenodd" fill="currentColor" d="M0 6a3 3 0 013-3h18a3 3 0 013 3v12a3 3 0 01-3 3H3a3 3 0 01-3-3V6zm2 0a1 1 0 011-1h18a1 1 0 011 1v3H2V6zm20 5v7a1 1 0 01-1 1H3a1 1 0 01-1-1v-7h20z"/></symbol><symbol fill="none" id="facebook" viewBox="0 0 24 24"><title>facebook</title><path fill-rule="evenodd" clip-rule="evenodd" d="M10.261 3.595A5.444 5.444 0 0114.111 2h2.667a1 1 0 011 1v3.556a1 1 0 01-1 1h-2.556V9.11h2.556a1 1 0 01.97 1.243l-.889 3.555a1 1 0 01-.97.758h-1.667v6.11a1 1 0 01-1 1H9.667a1 1 0 01-1-1v-6.11H7a1 1 0 01-1-1V10.11a1 1 0 011-1h1.667V7.444c0-1.444.573-2.828 1.594-3.85zm3.85.405a3.445 3.445 0 00-3.444 3.444v2.667a1 1 0 01-1 1H8v1.556h1.667a1 1 0 011 1v6.11h1.555v-6.11a1 1 0 011-1h1.886l.389-1.556h-2.275a1 1 0 01-1-1V7.444a1.889 1.889 0 011.89-1.888h1.666V4H14.11z" fill="currentColor"/></symbol><symbol fill="none" id="help" viewBox="0 0 24 24"><title>help</title><path d="M12.258 8.024a2 2 0 00-2.225 1.308 1 1 0 11-1.886-.664 4 4 0 017.773 1.333c0 1.53-1.135 2.54-1.945 3.081a8.036 8.036 0 01-1.686.848l-.035.013-.011.003-.004.002h-.002L11.92 13l.316.949a1 1 0 01-.633-1.897l.016-.006.074-.027a6.051 6.051 0 001.172-.6c.69-.46 1.055-.95 1.055-1.419v-.001a2 2 0 00-1.662-1.975zM12 16a1 1 0 100 2h.01a1 1 0 100-2H12z" fill="currentColor"/><path fill-rule="evenodd" clip-rule="evenodd" d="M1 12C1 5.925 5.925 1 12 1s11 4.925 11 11-4.925 11-11 11S1 18.075 1 12zm11-9a9 9 0 100 18 9 9 0 000-18z" fill="currentColor"/></symbol><symbol fill="none" id="instagram" viewBox="0 0 24 24"><title>instagram</title><path fill-rule="evenodd" clip-rule="evenodd" d="M9.74 7.519a5 5 0 114.606 8.876A5 5 0 019.74 7.519zm2.743 1.47a3 3 0 10-.88 5.935 3 3 0 00.88-5.935z" fill="currentColor"/><path d="M17.5 5.5a1 1 0 100 2h.01a1 1 0 100-2h-.01z" fill="currentColor"/><path fill-rule="evenodd" clip-rule="evenodd" d="M1 7a6 6 0 016-6h10a6 6 0 016 6v10a6 6 0 01-6 6H7a6 6 0 01-6-6V7zm6-4a4 4 0 00-4 4v10a4 4 0 004 4h10a4 4 0 004-4V7a4 4 0 00-4-4H7z" fill="currentColor"/></symbol><symbol id="medium_app" viewBox="0 0 62 62"><title>medium_app</title><path fill-rule="evenodd" clip-rule="evenodd" d="M18.105 8.053a2.526 2.526 0 00-2.526 2.526V51a2.526 2.526 0 002.526 2.526h25.263A2.526 2.526 0 0045.895 51V10.579a2.526 2.526 0 00-2.527-2.526H18.105zm-7.579 2.526A7.579 7.579 0 0118.106 3h25.262a7.579 7.579 0 017.58 7.579V51a7.579 7.579 0 01-7.58 7.579H18.105A7.579 7.579 0 0110.526 51V10.579z"/><path fill-rule="evenodd" clip-rule="evenodd" d="M28.21 45.947a2.526 2.526 0 012.527-2.526h.025a2.526 2.526 0 010 5.053h-.025a2.526 2.526 0 01-2.526-2.527z"/></symbol><symbol fill="none" id="medium_book" viewBox="0 0 24 24"><title>medium_book</title><path fill-rule="evenodd" clip-rule="evenodd" fill="currentColor" d="M6.5 3A1.5 1.5 0 005 4.5v11.838A3.5 3.5 0 016.5 16H19V3H6.5zM21 2a1 1 0 00-1-1H6.5A3.5 3.5 0 003 4.5v15A3.5 3.5 0 006.5 23H20a1 1 0 001-1V2zm-2 16H6.5a1.5 1.5 0 100 3H19v-3z"/></symbol><symbol id="medium_email" viewBox="0 0 22 18"><title>medium_email</title><path fill-rule="evenodd" clip-rule="evenodd" d="M0 2.983V15c0 1.652 1.348 3 3 3h16c1.652 0 3-1.348 3-3V2.982A3.006 3.006 0 0019 0H3a3.006 3.006 0 00-3 2.983zm2.107-.43C2.272 2.227 2.612 2 3 2h16c.388 0 .728.227.893.554L11 8.779 2.107 2.554zM20 4.922V15c0 .548-.452 1-1 1H3c-.548 0-1-.452-1-1V4.92l8.427 5.9a1 1 0 001.146 0L20 4.92z"/></symbol><symbol id="medium_podcast" viewBox="0 0 62 61"><title>medium_podcast</title><g clip-path="url(#clip0)"><path fill-rule="evenodd" clip-rule="evenodd" d="M30.737.158a10.105 10.105 0 00-10.105 10.105v20.21a10.106 10.106 0 0020.21 0v-20.21A10.105 10.105 0 0030.737.158zM27.164 6.69a5.053 5.053 0 018.625 3.573v20.21a5.052 5.052 0 01-10.105 0v-20.21c0-1.34.533-2.625 1.48-3.573z"/><path d="M15.579 25.421a2.526 2.526 0 00-5.053 0v5.053a20.21 20.21 0 0017.685 20.052v5.21h-7.58a2.526 2.526 0 000 5.053h20.211a2.526 2.526 0 100-5.052h-7.579v-5.211a20.21 20.21 0 0017.684-20.052V25.42a2.526 2.526 0 10-5.052 0v5.053a15.158 15.158 0 01-30.316 0V25.42z"/></g><defs><clipPath id="clip0"><path fill="#fff" transform="translate(.421 .158)" d="M0 0h60.632v60.632H0z"/></clipPath></defs></symbol><symbol id="medium_website" viewBox="0 0 62 61"><title>medium_website</title><path fill-rule="evenodd" clip-rule="evenodd" d="M30.737 7.79C18.18 7.79 8 17.97 8 30.525c0 12.558 10.18 22.737 22.737 22.737 12.557 0 22.737-10.18 22.737-22.737 0-12.557-10.18-22.737-22.737-22.737zM2.947 30.525c0-15.347 12.442-27.79 27.79-27.79 15.348 0 27.79 12.443 27.79 27.79 0 15.348-12.442 27.79-27.79 27.79-15.348 0-27.79-12.442-27.79-27.79z"/><path fill-rule="evenodd" clip-rule="evenodd" d="M2.948 30.526A2.526 2.526 0 015.474 28H56a2.526 2.526 0 110 5.053H5.474a2.526 2.526 0 01-2.526-2.527z"/><path fill-rule="evenodd" clip-rule="evenodd" d="M23.159 30.526a36.127 36.127 0 007.578 21.346 36.126 36.126 0 007.578-21.346 36.126 36.126 0 00-7.578-21.345 36.127 36.127 0 00-7.578 21.345zm7.578-25.263L28.872 3.56a41.179 41.179 0 00-10.766 27.02 41.179 41.179 0 0010.766 26.914 2.526 2.526 0 003.73 0 41.179 41.179 0 0010.766-27.02A41.179 41.179 0 0032.602 3.56l-1.865 1.704z"/></symbol><symbol fill="none" id="search" viewBox="0 0 24 24"><title>search</title><path fill-rule="evenodd" clip-rule="evenodd" d="M16.618 18.032a9 9 0 111.414-1.414l3.675 3.675a1 1 0 01-1.414 1.414l-3.675-3.675zM4 11a7 7 0 1112.041 4.856.998.998 0 00-.185.185A7 7 0 014 11z" fill="currentColor"/></symbol><symbol fill="none" id="translate" viewBox="0 0 24 24"><title>translate</title><path d="M10.496 11.802l2.357 2.408a1.43 1.43 0 01.208 1.732.86.86 0 01-1.343.17L9 13.412l-4.826 4.794c-.442.44-1.156.44-1.598 0l-.01-.01a1.11 1.11 0 01.016-1.571l4.922-4.823c-.817-.902-1.77-2.307-2.86-4.216a.934.934 0 01.412-1.308c.51-.24 1.12-.054 1.408.43C7.548 8.536 8.394 9.783 9 10.45a17.536 17.536 0 003.566-5.99H1.112a1.112 1.112 0 110-2.225h6.763v-1.11a1.125 1.125 0 012.25 0v1.11h6.757a1.118 1.118 0 010 2.236h-2.178a19.546 19.546 0 01-4.174 7.298l-.034.033z" fill="currentColor"/><path fill-rule="evenodd" clip-rule="evenodd" d="M16.512 12.016c.24-.613.83-1.016 1.488-1.016.654 0 1.237.412 1.456 1.028l3.79 10.688a.815.815 0 01-.565 1.062.995.995 0 01-1.179-.611l-.916-2.417h-5.182l-.83 2.208c-.226.6-.855.948-1.483.82a.938.938 0 01-.686-1.26l4.107-10.502zm3.365 6.855L18 13.64l-1.887 5.23h3.764z" fill="currentColor"/></symbol><symbol fill="none" id="twitter" viewBox="0 0 24 24"><title>twitter</title><path fill-rule="evenodd" clip-rule="evenodd" d="M14.525 2.36a5.48 5.48 0 015.608 1.035 9.9 9.9 0 002.29-1.202L23 3.01l.972.237a8.72 8.72 0 01-1.995 3.774c.015.161.023.323.023.486v.003c0 6.1-2.937 10.575-7.155 12.82-4.194 2.233-9.554 2.208-14.33-.446a1 1 0 01.525-1.873 10.64 10.64 0 004.875-.968c-1.503-.927-2.586-2.029-3.338-3.217-1.004-1.584-1.382-3.263-1.451-4.77-.068-1.504.17-2.857.421-3.828a13.083 13.083 0 01.483-1.491 5.74 5.74 0 01.039-.092l.011-.027.003-.007.023-.048.673-1.37 1.04 1.242a9.66 9.66 0 007.18 4.081 5.48 5.48 0 013.526-5.156zM3.405 6.054c-.184.801-.33 1.817-.281 2.91.056 1.243.365 2.564 1.143 3.792.773 1.222 2.049 2.411 4.14 3.34a1 1 0 01.155 1.741 12.637 12.637 0 01-3.602 1.689c3.17.807 6.347.422 8.945-.961C17.436 16.685 20 12.91 20 7.512c0-.216-.022-.432-.062-.644a1 1 0 01.28-.9c.223-.22.429-.454.618-.7-.227.083-.456.16-.688.23a1 1 0 01-1.043-.302A3.48 3.48 0 0013 7.526V8.54a1 1 0 01-.974 1 11.66 11.66 0 01-8.621-3.486z" fill="currentColor"/></symbol></svg>